<?xml version="1.0" encoding="utf-8"?>
<svg version="1.1" id="logo" xmlns="http://www.w3.org/2000/svg" xmlns:xlink="http://www.w3.org/1999/xlink" x="0px" y="0px"
	 viewBox="0 0 250 100" enable-background="new 0 0 250 100" xml:space="preserve">
<polygon fill="#FEFDF3" points="212,100 8.3,83.4 0,20 250.5,0 "/>
<polygon fill="#A8C33D" points="160.8,72.5 91.3,72.5 95,66.3 164.2,66.3 "/>
<path fill="#FFFFFF" d="M102.2,67.7l-1.1,3.6h-0.5l-0.9-2.9l-0.9,2.9h-0.5l-1.1-3.6h0.5l0.9,3.1l1-3.1h0.4l1,3.1l0.9-3.1H102.2z
	 M103.2,71.3h-0.4v-3.6h0.4V71.3z M106.7,67.7v0.4h-1.3v3.2H105v-3.2h-1.3v-0.4H106.7z M110.2,67.7v3.6h-0.4v-1.6h-2.1v1.6h-0.4
	v-3.6h0.4v1.6h2.1v-1.6H110.2z M114.1,67.7c0.4,0,0.7,0.1,1,0.2v0.4c-0.3-0.2-0.6-0.3-0.9-0.3c-0.7,0-1.5,0.4-1.5,1.5
	c0,1,0.8,1.4,1.5,1.4c0.4,0,0.7-0.1,1-0.3v0.4c-0.3,0.2-0.7,0.2-1,0.2c-0.9,0-1.9-0.6-1.9-1.8C112.2,68.3,113.2,67.7,114.1,67.7
	L114.1,67.7z M116.4,70h1.6l-0.7-1.8c0,0,0-0.1-0.1-0.1c0,0.1,0,0.1-0.1,0.1L116.4,70L116.4,70z M115.4,71.3l1.6-3.6h0.5l1.6,3.6
	h-0.5l-0.4-0.9h-1.9l-0.4,0.9H115.4L115.4,71.3z M119.9,69.5h1c0.4,0,0.9-0.1,0.9-0.7c0-0.5-0.5-0.7-0.9-0.7h-1V69.5z M119.5,71.3
	v-3.6h1.4c0.6,0,1.3,0.3,1.3,1.1c0,0.7-0.5,1-1,1.1l1.2,1.5H122l-1.2-1.4h-0.9v1.4L119.5,71.3L119.5,71.3z M125.5,67.7v0.4h-2v1.2
	h1.8v0.4h-1.8v1.2h2v0.4h-2.5v-3.6H125.5z M130,67.7v0.4h-2v1.2h1.9v0.4H128v1.5h-0.4v-3.6H130z M132.2,68.1c-1,0-1.4,0.7-1.4,1.5
	c0,0.7,0.5,1.5,1.4,1.5c1,0,1.4-0.7,1.4-1.5C133.7,68.8,133.2,68.1,132.2,68.1z M132.2,67.7c1.3,0,1.9,0.9,1.9,1.9
	c0,0.9-0.6,1.9-1.9,1.9c-1.3,0-1.9-0.9-1.9-1.9C130.4,68.6,131,67.7,132.2,67.7z M135.3,69.5h1c0.4,0,0.9-0.1,0.9-0.7
	c0-0.5-0.5-0.7-0.9-0.7h-1V69.5z M134.8,71.3v-3.6h1.4c0.6,0,1.3,0.3,1.3,1.1c0,0.7-0.5,1-1,1.1l1.2,1.5h-0.5l-1.2-1.4h-0.9v1.4
	L134.8,71.3L134.8,71.3z M139.7,71.3v-3.6h0.4l2.2,2.9v-0.3v-2.6h0.4v3.6h-0.4l-2.2-2.9v0.3v2.6H139.7z M144.2,70h1.6l-0.7-1.8
	c0,0,0-0.1-0.1-0.1c0,0.1,0,0.1-0.1,0.1L144.2,70L144.2,70z M143.2,71.3l1.6-3.6h0.5l1.6,3.6h-0.5l-0.4-0.9H144l-0.4,0.9H143.2
	L143.2,71.3z M149.5,67.7v0.4h-1.3v3.2h-0.4v-3.2h-1.3v-0.4H149.5z M153,67.7V70c0,1-0.7,1.4-1.5,1.4c-0.8,0-1.5-0.3-1.5-1.4v-2.3
	h0.4V70c0,0.7,0.5,1,1.1,1c0.6,0,1.1-0.3,1.1-1v-2.3H153z M154.3,69.5h1c0.4,0,0.9-0.1,0.9-0.7c0-0.5-0.5-0.7-0.9-0.7h-1V69.5z
	 M153.9,71.3v-3.6h1.4c0.6,0,1.3,0.3,1.3,1.1c0,0.7-0.5,1-1,1.1l1.2,1.5h-0.5l-1.2-1.4h-0.9v1.4L153.9,71.3L153.9,71.3z M159.9,67.7
	v0.4h-2v1.2h1.8v0.4h-1.8v1.2h2v0.4h-2.5v-3.6H159.9z"/>
<path fill="#454545" d="M29.9,33.8c3,0,6.1,0.6,8.7,1.8v5.8c-2.1-1.4-5-2.2-7.9-2.2c-5.1,0-10,2.7-10,9.3c0,7.5,5.5,9.4,9.7,9.4
	c1.2,0,2.3-0.2,3.1-0.5V47.3h5.8v14c-2.8,1.2-6.1,1.9-9.2,1.9c-7.9,0-15.6-4.3-15.6-14.7C14.4,38.3,22.1,33.8,29.9,33.8z M54.4,42.9
	v5.5c-3.1-0.5-6,0.6-7.2,3v11.4h-5.6V43.3h5v2.9C47.9,44.1,50.7,42.5,54.4,42.9L54.4,42.9z M64.6,47c-2.4,0-4.5,1.5-4.6,4.2h8.7
	C68.9,49.8,68.1,47,64.6,47z M64.4,42.7c8.1,0,10.6,6.4,9.4,12.1H60.1c0.6,2.8,3.6,4,6.8,4c2.2,0,4.2-0.4,5.9-1.2v4.4
	c-1.8,0.8-4.2,1.2-7.1,1.2c-6.2,0-11.3-3.5-11.3-10.3C54.4,45.7,60,42.7,64.4,42.7L64.4,42.7z M85.4,47c-2.4,0-4.5,1.5-4.6,4.2h8.7
	C89.7,49.8,88.9,47,85.4,47z M85.2,42.7c8.1,0,10.6,6.4,9.4,12.1H80.8c0.6,2.8,3.6,4,6.8,4c2.2,0,4.2-0.4,5.9-1.2v4.4
	c-1.8,0.8-4.2,1.2-7.1,1.2c-6.2,0-11.3-3.5-11.3-10.3C75.2,45.7,80.8,42.7,85.2,42.7L85.2,42.7z M107.6,42.7c5.1,0,7.9,3.5,7.9,8v12
	h-5.6V51.4c0-2.6-1.6-3.8-3.8-3.8c-2,0-3.5,1.3-4.3,2.5v12.7h-5.6V43.3h5v2.5C102.6,44,104.8,42.7,107.6,42.7L107.6,42.7z
	 M147.1,43.3l-6.2,19.4h-6l-3.8-12.7l-3.8,12.7h-6L115,43.3h6l3.5,13.3l3.9-13.3h5.3l3.8,13.3l3.6-13.3H147.1z M151.9,56.9
	c0,1.5,1.3,2.4,3,2.4c1.6,0,3.1-0.4,4.4-1.6v-3c-0.9-0.2-2.1-0.4-3.3-0.4C153.9,54.2,151.9,54.9,151.9,56.9L151.9,56.9z M166.3,59
	c0.3,0,0.7,0,1.1-0.2v3.7c-0.9,0.3-2,0.6-3.1,0.6c-2,0-3.5-0.7-4.3-2.2c-1.9,1.5-4.1,2.4-7,2.4c-3.6,0-6.8-2.1-6.8-6
	c0-4.9,4.7-6.5,8.5-6.5c1.5,0,3.2,0.2,4.6,0.5v-0.7c0-1.9-1.5-3.3-4.6-3.3c-2.7,0-5.1,0.7-6.9,1.5V44c1.6-0.5,4.5-1.3,7.5-1.3
	c5.8,0,9.6,2.4,9.6,8.8v6.2C164.9,58.7,165.6,59,166.3,59L166.3,59z M180.7,43.3h5.8l-8.6,21.8c-2.2,5.4-5.2,7.1-8.4,7.1
	c-1,0-2-0.2-3-0.4v-4.7c0.8,0.2,1.5,0.3,2.3,0.3c2,0,3.6-1.4,4.6-4.2l0-0.1l-9.2-19.7h6l5.7,13.1L180.7,43.3L180.7,43.3z
	 M190.4,38.4L215.8,53l-25.3,14.6V38.4z"/>
</svg>
